/* XPM */
static char *_868_464835fdc0930539d9be9f1d742865929680093b357da2afba14e6bdb21d31b3[] = {
/* columns rows colors chars-per-pixel */
"64 64 256 2 ",
"   c black",
".  c #0000A8",
"X  c #00A800",
"o  c #00A8A8",
"O  c #A80000",
"+  c #A800A8",
"@  c #A85400",
"#  c gray66",
"$  c gray33",
"%  c #5454FC",
"&  c #54FC54",
"*  c #54FCFC",
"=  c #FC5454",
"-  c #FC54FC",
";  c #FCFC54",
":  c gray99",
">  c #ECECEC",
",  c gainsboro",
"<  c #D0D0D0",
"1  c #C0C0C0",
"2  c #B4B4B4",
"3  c gray66",
"4  c #989898",
"5  c gray55",
"6  c #7C7C7C",
"7  c gray44",
"8  c #646464",
"9  c gray33",
"0  c #484848",
"q  c gray22",
"w  c #2C2C2C",
"e  c #202020",
"r  c #FC0000",
"t  c #EC0000",
"y  c #E00000",
"u  c #D40000",
"i  c #C80000",
"p  c #BC0000",
"a  c #B00000",
"s  c #A40000",
"d  c #980000",
"f  c #880000",
"g  c #7C0000",
"h  c #700000",
"j  c #640000",
"k  c #580000",
"l  c #4C0000",
"z  c #400000",
"x  c #FCD8D8",
"c  c #FCB8B8",
"v  c #FC9C9C",
"b  c #FC7C7C",
"n  c #FC5C5C",
"m  c #FC4040",
"M  c #FC2020",
"N  c #FC0000",
"B  c #FCA85C",
"V  c #FC9840",
"C  c #FC8820",
"Z  c #FC7800",
"A  c #E46C00",
"S  c #CC6000",
"D  c #B45400",
"F  c #9C4C00",
"G  c #FCFCD8",
"H  c #FCFCB8",
"J  c #FCFC9C",
"K  c #FCFC7C",
"L  c #FCF85C",
"P  c #FCF440",
"I  c #FCF420",
"U  c #FCF400",
"Y  c #E4D800",
"T  c #CCC400",
"R  c #B4AC00",
"E  c #9C9C00",
"W  c #848400",
"Q  c #706C00",
"!  c #585400",
"~  c #404000",
"^  c #D0FC5C",
"/  c #C4FC40",
"(  c #B4FC20",
")  c #A0FC00",
"_  c #90E400",
"`  c #80CC00",
"'  c #74B400",
"]  c #609C00",
"[  c #D8FCD8",
"{  c #BCFCB8",
"}  c #9CFC9C",
"|  c #80FC7C",
" . c #60FC5C",
".. c #40FC40",
"X. c #20FC20",
"o. c #00FC00",
"O. c #00FC00",
"+. c #00EC00",
"@. c #00E000",
"#. c #00D400",
"$. c #04C800",
"%. c #04BC00",
"&. c #04B000",
"*. c #04A400",
"=. c #049800",
"-. c #048800",
";. c #047C00",
":. c #047000",
">. c #046400",
",. c #045800",
"<. c #044C00",
"1. c #044000",
"2. c #D8FCFC",
"3. c #B8FCFC",
"4. c #9CFCFC",
"5. c #7CFCF8",
"6. c #5CFCFC",
"7. c #40FCFC",
"8. c #20FCFC",
"9. c #00FCFC",
"0. c #00E4E4",
"q. c #00CCCC",
"w. c #00B4B4",
"e. c #009C9C",
"r. c #008484",
"t. c #007070",
"y. c #005858",
"u. c #004040",
"i. c #5CBCFC",
"p. c #40B0FC",
"a. c #20A8FC",
"s. c #009CFC",
"d. c #008CE4",
"f. c #007CCC",
"g. c #006CB4",
"h. c #005C9C",
"j. c #D8D8FC",
"k. c #B8BCFC",
"l. c #9C9CFC",
"z. c #7C80FC",
"x. c #5C60FC",
"c. c #4040FC",
"v. c #2024FC",
"b. c #0004FC",
"n. c #0000FC",
"m. c #0000EC",
"M. c #0000E0",
"N. c #0000D4",
"B. c #0000C8",
"V. c #0000BC",
"C. c #0000B0",
"Z. c #0000A4",
"A. c #000098",
"S. c #000088",
"D. c #00007C",
"F. c #000070",
"G. c #000064",
"H. c #000058",
"J. c #00004C",
"K. c #000040",
"L. c #282828",
"P. c #FCE034",
"I. c #FCD424",
"U. c #FCCC18",
"Y. c #FCC008",
"T. c #FCB400",
"R. c #B420FC",
"E. c #A800FC",
"W. c #9800E4",
"Q. c #8000CC",
"!. c #7400B4",
"~. c #60009C",
"^. c #500084",
"/. c #440070",
"(. c #340058",
"). c #280040",
"_. c #FCD8FC",
"`. c #FCB8FC",
"'. c #FC9CFC",
"]. c #FC7CFC",
"[. c #FC5CFC",
"{. c #FC40FC",
"}. c #FC20FC",
"|. c #FC00FC",
" X c #E000E4",
".X c #C800CC",
"XX c #B400B4",
"oX c #9C009C",
"OX c #840084",
"+X c #6C0070",
"@X c #580058",
"#X c #400040",
"$X c #FCE8DC",
"%X c #FCE0D0",
"&X c #FCD8C4",
"*X c #FCD4BC",
"=X c #FCCCB0",
"-X c #FCC4A4",
";X c #FCBC9C",
":X c #FCB890",
">X c #FCB080",
",X c #FCA470",
"<X c #FC9C60",
"1X c #F0945C",
"2X c #E88C58",
"3X c #DC8854",
"4X c #D08050",
"5X c #C87C4C",
"6X c #BC7848",
"7X c #B47044",
"8X c #A86840",
"9X c #A0643C",
"0X c #9C6038",
"qX c #905C34",
"wX c #885830",
"eX c #80502C",
"rX c #744C28",
"tX c #6C4824",
"yX c #5C4020",
"uX c #543C1C",
"iX c #483818",
"pX c #403018",
"aX c #382C14",
"sX c #28200C",
"dX c #600064",
"fX c #006464",
"gX c #006060",
"hX c #00001C",
"jX c #00002C",
"kX c #302410",
"lX c #480048",
"zX c #500050",
"xX c #000034",
"cX c gray11",
"vX c #4C4C4C",
"bX c gray36",
"nX c gray25",
"mX c gray19",
"MX c #343434",
"NX c #D8F4F4",
"BX c #B8E8E8",
"VX c #9CDCDC",
"CX c #74C8C8",
"ZX c #48C0C0",
"AX c #20B4B4",
"SX c #20B0B0",
"DX c #00A4A4",
"FX c #009898",
"GX c #008C8C",
"HX c #008484",
"JX c #007C7C",
"KX c #007878",
"LX c #007474",
"PX c #007070",
"IX c #006C6C",
"UX c #980088",
/* pixels */
"w w w w w w w w w w w w w w w w w w w w w w w w w w w w w w w w w w w w w w w w w w w w w w w w w w w w w w w w w w w w w w w w ",
"8X8X8X8X8X8X8X8X8X8XwXeXeXrXL.w w rXeXeXwX8X8X8X8X8X8X8X8X8X8X8X8X8X8X8X8X8X8X8X8X8XwXeXeXrXL.w w rXeXeXwX8X8X8X8X8X8X8X8X8X8X8X",
"wXqXqXwXeXwXqXqXqXwX8X8XqXyXe w w tXeXwXeXqXqXqX8XqXwXqXqXwXqXwX8X8XqXeXwXeXqXrXrXeXeXeXqXyXe w w tXqXqXqXqXeXuXyXeXrXeXeXwXqXwX",
"8X8XwXqXwXeXwX8X8X8X8XqX8XyXe w w tXtXrXqXqXqX8X8XqXwXwXeXwXwXqX8XqX8XwXqXqXqXwXwXqXwXeXwXyXe w w tX8X8XqXeXeXyXyXeXrXwXeXeX8X8X",
"8X8XeXeXwXwXqXqXqX8XqXqXqXyXe w w tXeXqXwXqXqX8XqXqXwXqXwXwXqXwXqX8XqXqXwXwXqX6XwXqXeXwXeXyXe w w tXqXqX8XqXwXwXrXyXwXqXqXqX8X8X",
"qX8XwXqXqXwXwX8X8X8X8X8XrXyXe w w tXqXeXqXqXqXqXqXqXwXeXeXwXeXwXqX8XqX8X6X8X8XqXwXwXeXeXrXyXe w w tXwXqX8XeXeXqXqXeXeXwXqXqX8X6X",
"qX8XqXqXwXqXqXqXqX8XqX8XqXyXe w w tX8X8XqXqXwXwXeXqXqXqXwXeXrXwXeXeXqXqX8X8XqXqXqXeXrXyXrXyXe w w tXqXqXqX8X8XqXqX8XqX8X8XqX8XqX",
"qXwXqXwXqXqX8X8X8XqXqXqXqXyXe w w tX8XqX8XwXeXwXwXeXqXeXwXwXtXwXwXeXwXqX8XqXqXwXeXwXeXyXrXyXe w w tXeXqXwXqXqXqX8X6X8XqXqX8X8X8X",
"sXsXsXsXsXaXaXaXaXpXiXuXuXuXe w w uXuXuXiXpXaXaXaXsXsXsXsXsXsXsXsXsXsXsXsXaXaXaXaXpXiXuXuXuXe w w uXuXuXiXpXaXaXaXsXsXsXsXsXsXsX",
"cXcXcXcXcXcXcXcXcXcXcXcXcXcXcXw w cXcXcXcXcXcXcXcXcXcXcXcXcXcXcXcXcXcXcXcXcXcXcXcXcXcXcXcXcXcXw w cXcXcXcXcXcXcXcXcXcXcXcXcXcXcX",
"L.L.L.L.L.L.L.L.L.L.L.L.L.L.L.w w L.L.L.L.L.L.L.L.L.L.L.L.L.L.L.L.L.L.L.L.L.L.L.L.L.L.L.L.L.L.w w L.L.L.L.L.L.L.L.L.L.L.L.L.L.L.",
"w rXeXeXwX8X8X8X8X8X8X8X8X8X8X8X8X8X8X8X8X8X8X8X8X8XwXeXeXrXL.w w rXeXeXwX8X8X8X8X8X8X8X8X8X8X8X8X8X8X8X8X8X8X8X8X8XwXeXeXrXL.w ",
"w tXwXqX8X6XqXqXqXqXrXtXqXwXqXwX8X8XwXqXqXwXqXqXqXeXeXwXqXyXe w w tXqXqXwXwXwXqXqXqXqXwXwXwXwXqX6X6XqXqXqX6XqX8X8X8XqXwXqXyXe w ",
"w tXqXqX8XqXqXwXrXqXqXwXeXeXqXqX8XqXwXqXwXqXqXwXwXqXqXqXwXyXe w w tX8XwXeXeXqXwXqXwX8X8X8XqX8XqX8X8X8XqX6X8X8X6X6XqX8X8X8XyXe w ",
"w tXqXqXqXwXwXwXtXwXwXwXqXqXqXqX8XqX8XwXeXeXwXqXwXqXwXqX8XyXe w w tXqXqXqXrXtXwXqXqXqX8XwXqXqXqX6X6X4XqX8X6X6X8X6X8X8XwXqXyXe w ",
"w tXwXqXqXwXwXeXwXqXqX8X8XwX8XqXqXqX8X8XwXqXqXqX8XqX8XqX8XyXe w w tXqXeXrXeXeXeXwX8X8X8X6X8X8X6X6X6X6X6XqXqX8X8X8X8X8X8X8XyXe w ",
"w tXeXwXqXqXwXqX8XqX8XwX8X8XqXqXwXqXqX8XwXqX8X8X8XqXqX8X8XyXe w w tXwXeXrXwXqXqXqXqXqX6X8X6X8X8X6X8X8X8XwXwX8X8X8X6X6X8XqXyXe w ",
"w tXqXqXwXqXeXqXqX8X6X8X8X8X8XwXqXwXqXqXqXqXqX8X8X4X6XqXqXyXe w w tXwXwXwXwXwXqX8X8XqXqX8X6X6X6X8X8XqX8XqXqXwX6XqXqXqXwXeXyXe w ",
"w tXqXqXeXqX8XqX8XqX8XqX8XqXqX8X8XwXwXqX6X6X6X6X6X8X8X8X8XyXe w w tXeXrXwXrXyXqXqXqX8XqXqX6X8X8X8XqXqXeXqX8XwXwXqXqX8XqXeXyXe w ",
"w uXuXuXiXpXaXaXaXsXsXsXsXsXsXsXsXsXsXsXsXaXaXaXaXpXiXuXuXuXe w w uXuXuXiXpXaXaXaXsXsXsXsXsXsXsXsXsXsXsXsXaXaXaXaXpXiXuXuXuXe w ",
"w cXcXcXcXcXcXcXcXcXcXcXcXcXcXcXcXcXcXcXcXcXcXcXcXcXcXcXcXcXcXw w cXcXcXcXcXcXcXcXcXcXcXcXcXcXcXcXcXcXcXcXcXcXcXcXcXcXcXcXcXcXw ",
"w L.L.L.L.L.L.L.L.L.L.L.L.L.L.L.L.L.L.L.L.L.L.L.L.L.L.L.L.L.L.w w L.L.L.L.L.L.L.L.L.L.L.L.L.L.L.L.L.L.L.L.L.L.L.L.L.L.L.L.L.L.w ",
"8X8X8X8X8X8X8X8X8X8XwXeXeXrXL.w w rXeXeXwX8X8X8X8X8X8X8X8X8X8X8X8X8X8X8X8X8X8X8X8X8XwXeXeXrXL.w w rXeXeXwX8X8X8X8X8X8X8X8X8X8X8X",
"qX8X8X6X8X6X8X6X4X4X6X6X4XyXe w w tX8X6X4X6X6X8X6X8XqXqX8XwX8XqXqXqXwX8XeXyXeXuXtXwXqX8XqXyXe w w tXqXeXqX8XqXqXeXeXeXwXqX8XqX8X",
"6X6X8X8X6X6X4X6X6X4X4X6X6XyXe w w tX8X8X6X6X8X8XqX6X6X6X8XwXqXwXeXqXwXwXwXrXeXrXuXeXeX8XqXyXe w w tX8XqXwXqX8XwXqXwXqXwXqX8X8X6X",
"8X8X6X8X6X8X6X4X4X6X4X8XqXyXe w w tX8X8X8X8X8X8XqXqX8X8XqXqXqXrXrXeXeXqXqXwXeXeXtXtX8XwX8XyXe w w tX8XwXwXwXwXwXwXqXqXqXqX8X8X6X",
"6X6X8X8X8X6X6X6X6X6X4X6XqXyXe w w tX8XwX8X6X6X8X8X8XwXwXeXeXtXeXeXeXeXeXqXeXwXwXqXrXwXqXqXyXe w w tXwXwXeXqXwX8XqX8XqXqX8X8X8X8X",
"8X6XqX8X8XqXqX8X6X8X6X8XqXyXe w w tX8X8XqX8X8X8X8XqXwXwXrXqXeXeXeXwXeXwXwXqXwXeXeXwXwXqXqXyXe w w tXwXqX8X8XqXqX8X6X6X8X6X8X8X6X",
"qX6X8XwXeXqXqX8X8X8X8X8XqXyXe w w tXqXqXqX8X8XqXeXeXeXeXtXeXtXeXwXqXeXwXwX8X8XqXqXqXwXeXqXyXe w w tXqX8XqXqX6X8X8X6X6XqX8X8X8XqX",
"8XqXqX8XwXqXqXwXwXqXqXqX8XyXe w w tX8X8X8XwXqX8X6XeXqXqXeXeXwXeXeXwXqXqXqXqXqXwXwXqXqXwXqXyXe w w tX8X6X6X6X4X8X6X4X4X8X6X6X6X8X",
"sXsXsXsXsXaXaXaXaXpXiXuXuXuXe w w uXuXuXiXpXaXaXaXsXsXsXsXsXsXsXsXsXsXsXsXaXaXaXaXpXiXuXuXuXe w w uXuXuXiXpXaXaXaXsXsXsXsXsXsXsX",
"cXcXcXcXcXcXcXcXcXcXcXcXcXcXcXw w cXcXcXcXcXcXcXcXcXcXcXcXcXcXcXcXcXcXcXcXcXcXcXcXcXcXcXcXcXcXw w cXcXcXcXcXcXcXcXcXcXcXcXcXcXcX",
"L.L.L.L.L.L.L.L.L.L.L.L.L.L.L.w w L.L.L.L.L.L.L.L.L.L.L.L.L.L.L.L.L.L.L.L.L.L.L.L.L.L.L.L.L.L.w w L.L.L.L.L.L.L.L.L.L.L.L.L.L.L.",
"w rXeXeXwX8X8X8X8X8X8X8X8X8X8X8X8X8X8X8X8X8X8X8X8X8XwXeXeXrXL.w w rXeXeXwX8X8X8X8X8X8X8X8X8X8X8X8X8X8X8X8X8X8X8X8X8XwXeXeXrXL.w ",
"w tXeXeXrXwXqX8XqX8X8X8XqXqX8XqX8X6X8X6X8X8X6X8X8XqX8XwX8XyXe w w tX8X8X8X8X6X8X6X6X8X8X6XqXqX8X8X6X6X6X8X6X8XqX8XqXwXqXwXyXe w ",
"w tXeXqXeXtXqXqX8XqXqXqXeXwXwXqX8X6X6X8X8X6X6X6X8XqXqXqXqXyXe w w tX8XwX8X8X6X6X8X6X6X8X8X8X8XwX8X8X6X8XqXqX8XqXqX8XqXqXqXyXe w ",
"w tXqXqXqXrXwXqXqXqX8X8XeXrXeXqXqXqX8X8X8XqXqX8X6X4X8XeXwXyXe w w tXqX6X6X4X6X4X4X8X6X8XqX8XqXqXwX8X8X8XqX8X8X8XwXqXwXwXwXyXe w ",
"w tXqXwXeXeXyXrXqXqXqXqX8XeXwXeXqX8X8X8XqX8X8X8X8X8X8XeXeXyXe w w tXqX6X8X6X6X8X8X6X6XqXwX8X8XqXtXeXqXeX6XqXqXqXqXqXeXeXeXyXe w ",
"w tXwXwXwXwXeXtXwXqX8X8XqXqXqXqXqXqX6X8X6X8XqX8X6X6X8XwXeXyXe w w tX8XqX6X6X8X6X6XqXqXqXeXeXqXwXqXeXwXqXqXqX8XqXqXwXwXeXrXyXe w ",
"w tXqXeXtXeXeXyXrXqXqX8X8XqX8XqX8XqXwX8X8XqXqXqXqXqX6XwXwXyXe w w tX8XqX6X6X8X8XqX8XqXqXwXtXwXqXwXeXeXwXeXwXqXqXqXqX8X8XwXyXe w ",
"w tXwXwXeXeXeXrXyXrXqXqX8X8X6X8X8XqX8X8XqX8XqXwXqX8XqXqXeXyXe w w tXqXqX8X8X6X8XqXqXqXqXqXrXrXqXqXwXqXwXqXwXqXqX8XqXqX8XqXyXe w ",
"w uXuXuXiXpXaXaXaXsXsXsXsXsXsXsXsXsXsXsXsXaXaXaXaXpXiXuXuXuXe w w uXuXuXiXpXaXaXaXsXsXsXsXsXsXsXsXsXsXsXsXaXaXaXaXpXiXuXuXuXe w ",
"w cXcXcXcXcXcXcXcXcXcXcXcXcXcXcXcXcXcXcXcXcXcXcXcXcXcXcXcXcXcXw w cXcXcXcXcXcXcXcXcXcXcXcXcXcXcXcXcXcXcXcXcXcXcXcXcXcXcXcXcXcXw ",
"w L.L.L.L.L.L.L.L.L.L.L.L.L.L.L.L.L.L.L.L.L.L.L.L.L.L.L.L.L.L.w w L.L.L.L.L.L.L.L.L.L.L.L.L.L.L.L.L.L.L.L.L.L.L.L.L.L.L.L.L.L.w ",
"8X8X8X8X8X8X8X8X8X8XwXeXeXrXL.w w rXeXeXwX8X8X8X8X8X8X8X8X8X8X8X8X8X8X8X8X8X8X8X8X8XwXeXeXrXL.w w rXeXeXwX8X8X8X8X8X8X8X8X8X8X8X",
"qXwXeXwXqXqXeXrXeXeXrXwXeXyXe w w tXqXqXwXwXqX8XqX8XqXeXeXqXqXwXwXwX8X8XqX8X6X8XqXwXqXqXqXyXe w w tX8XqX8X8X6X8X8X4X6X6X8X6X4X8X",
"wXwXeXeXeXwXeXeXeX8XwXeXwXyXe w w tXqX8XqXqXqXqXqXwXqXwXeXwXqXqXqXqXqX8X8X8XqXwXrXrXeXwXwXyXe w w tXqXqX8X6X4X6X6X6XqX6X8X8X8X6X",
"8XwXwXrXqXeXqXqXwXqX8XqXeXyXe w w tX8XqX8XqX8X8X6XqXwXwXrXrXeXqX8XwX8XqX8X8X8X8XqXeXwXrXwXyXe w w tXqX8XqX4X4X3X8X6X6X8X8XqX8X8X",
"8XwX8XqXeXwXqXwXqXwX8XqXwXyXe w w tX8XqX8XqX6X8X8X8XwXwXrXeXtX8X8X8XqXqXqX8X8XqX6X8XwXtXwXyXe w w tX8X8X8X4X4X4X4X8X8X8X8XqX8XqX",
"qXqXqXeXeXwXwXqXqXwXqXqX8XyXe w w tX8X6X8XqX8XqXqXqXqXqXeXwXeXeXwXwXqXwXqXqX8XqXqXqXqXwXeXyXe w w tX6X6X6X8X4X4X3X8XqX8X8XqXqX8X",
"qX8XqXwXeXrXwXwX8XqXqX8X4XyXe w w tX6X8XqXqXwXqX8XqXqXeXeXeXuXtXtXqXwXqXwX8X6X6XqX8XqXqXeXyXe w w tX8X8X6X8X8X6X6X4X6XqXqXqX8XqX",
"wXwX8X8X8X6XqXqX6X6X8X8X8XyXe w w tXqX8X8XqXqXqXwXqXqXwXeXwXwXeXeXeXtXqXqXqX8X6X6X8X8X8X8XyXe w w tX8XwXqX8XqX6X4X6X6X8XqX8XqX8X",
"sXsXsXsXsXaXaXaXaXpXiXuXuXuXe w w uXuXuXiXpXaXaXaXsXsXsXsXsXsXsXsXsXsXsXsXaXaXaXaXpXiXuXuXuXe w w uXuXuXiXpXaXaXaXsXsXsXsXsXsXsX",
"cXcXcXcXcXcXcXcXcXcXcXcXcXcXcXw w cXcXcXcXcXcXcXcXcXcXcXcXcXcXcXcXcXcXcXcXcXcXcXcXcXcXcXcXcXcXw w cXcXcXcXcXcXcXcXcXcXcXcXcXcXcX",
"L.L.L.L.L.L.L.L.L.L.L.L.L.L.L.w w L.L.L.L.L.L.L.L.L.L.L.L.L.L.L.L.L.L.L.L.L.L.L.L.L.L.L.L.L.L.w w L.L.L.L.L.L.L.L.L.L.L.L.L.L.L.",
"w rXeXeXwX8X8X8X8X8X8X8X8X8X8X8X8X8X8X8X8X8X8X8X8X8XwXeXeXrXL.w w rXeXeXwX8X8X8X8X8X8X8X8X8X8X8X8X8X8X8X8X8X8X8X8X8XwXeXeXrXL.w ",
"w tXqXqX8XqX8X8X6X8X8X8X6X8XqXqX8X8X8XqXeXrXwXeXqXqXqX8X8XyXe w w tX8XqX8XwXqXqXqX6X6X6X8X6X8XqXqX8X8XqXqXqXwXeXqX8X8XqX6XyXe w ",
"w tXqXqXqX8XwX6X6X4X4X6XqXwXqXqXqX8XqX8XqXeXwXqXqX8XqX6X8XyXe w w tXeXqXwXwXwXqXqXqX6X8X6X8X8X8XqX8XwXqXqXqXwXwXwXwXqX8X6XyXe w ",
"w tXwXeXwX8XqX6X6X6X6X6XqX8XwXeXwXqXwXqX8XwXeX8X8X8XqX6X8XyXe w w tXrXqXqXwXqXwXqXwX8XqX8X8XqXqXqXwXeXwXwXwXqXwX8XqXqX8XqXyXe w ",
"w tXrXtXwXrX6X8X6X6X4X6XqXwXeXwXeXqXqXqXqX8XwXqX8X8X6X6XqXyXe w w tXqXqXwXwXeXeXeXeXqXqX8X8XqXwXwXtXqXeXqX8XqXqX8X8XqX8X8XyXe w ",
"w tXwXrXwXqXqX8X8X6X6X4X8XqXwXtXrXwXwX8XqX8XqXqX8X8X8X8XqXyXe w w tXrXwXqXwXrXeXeXeXeXeX8XqX8XqXwXrXwXwXeX8X8X8X6X6XqXwXeXyXe w ",
"w tXwXeXrXwXqXqX8X8XqX8XqXqXqXwXeXwXwX8XqX8X8XqXqX8XqX8X8XyXe w w tXwXrXeXrXwXtXeXwXrXeXqXwX8X8XqXqXeXqXwXqX6X8X8XqX8X8XeXyXe w ",
"w uXuXuXiXpXaXaXaXsXsXsXsXsXsXsXsXsXsXsXsXaXaXaXaXpXiXuXuXuXe w w uXuXuXiXpXaXaXaXsXsXsXsXsXsXsXsXsXsXsXsXaXaXaXaXpXiXuXuXuXe w ",
"w cXcXcXcXcXcXcXcXcXcXcXcXcXcXcXcXcXcXcXcXcXcXcXcXcXcXcXcXcXcXw w cXcXcXcXcXcXcXcXcXcXcXcXcXcXcXcXcXcXcXcXcXcXcXcXcXcXcXcXcXcXw "
};
