/* XPM */
static char *_381_41484fbd30536d97f344f44bb831de056b1fe271246163ffbf91e2b419fcb7f3[] = {
/* columns rows colors chars-per-pixel */
"64 64 224 2 ",
"   c #060606",
".  c #0B0D05",
"X  c #0E1009",
"o  c #14170A",
"O  c #191515",
"+  c #1C1C13",
"@  c #192506",
"#  c #1D230D",
"$  c #24290A",
"%  c #252B0C",
"&  c #2D370A",
"*  c #333A0E",
"=  c #242414",
"-  c #262918",
";  c #2B2C1D",
":  c #322E1D",
">  c #2D3412",
",  c #283A16",
"<  c #2B3D15",
"1  c #2B331B",
"2  c #343B14",
"3  c #373D16",
"4  c #31371D",
"5  c #323A1E",
"6  c #1B0923",
"7  c #270A2C",
"8  c #311135",
"9  c #2D2626",
"0  c #3B2928",
"q  c #353B21",
"w  c #3A3629",
"e  c #401D37",
"r  c #4D3234",
"t  c #37450D",
"y  c #3C440C",
"u  c #38500D",
"i  c #2C451A",
"p  c #364717",
"a  c #3A4214",
"s  c #3B431D",
"d  c #384020",
"f  c #2F632C",
"g  c #444E0D",
"h  c #49590C",
"j  c #515C0E",
"k  c #434717",
"l  c #414B13",
"z  c #434C1A",
"x  c #455114",
"c  c #4A5513",
"v  c #4E5A13",
"b  c #4A541B",
"n  c #455B1E",
"m  c #525D13",
"M  c #535C1A",
"N  c #55670B",
"B  c #566F0D",
"V  c #566313",
"C  c #5A6514",
"Z  c #5D6B13",
"A  c #5C671B",
"S  c #6A7D0C",
"D  c #606D13",
"F  c #616E1B",
"G  c #657313",
"H  c #697614",
"J  c #687A17",
"K  c #6D7B14",
"L  c #65731B",
"P  c #707D19",
"I  c #4B502F",
"U  c #565827",
"Y  c #675631",
"T  c #775C3A",
"R  c #576A2A",
"E  c #4A7D38",
"W  c #616926",
"Q  c #6D7422",
"!  c #737B22",
"~  c #757538",
"^  c #231F5C",
"/  c #292947",
"(  c #36356F",
")  c #50174F",
"_  c #62145D",
"`  c #542843",
"'  c #582C47",
"]  c #662E4C",
"[  c #632955",
"{  c #6E3552",
"}  c #763B53",
"|  c #761174",
" . c #791577",
".. c #6A2163",
"X. c #7B266D",
"o. c #377641",
"O. c #6A4947",
"+. c #7E5645",
"@. c #716F45",
"#. c #534C71",
"$. c #871A7E",
"%. c #89316C",
"&. c #932B7C",
"*. c #A23B7C",
"=. c #884E55",
"-. c #8F674A",
";. c #9A4371",
":. c #B4587B",
">. c #AA6765",
",. c #6A850C",
"<. c #6D8B0F",
"1. c #7B9B0C",
"2. c #738315",
"3. c #758B13",
"4. c #7B8B15",
"5. c #73831A",
"6. c #798719",
"7. c #7B8B1A",
"8. c #7E9317",
"9. c #5B8323",
"0. c #7F8A23",
"q. c #6E8D37",
"w. c #2E8240",
"e. c #6B8145",
"r. c #4BA84E",
"t. c #67C264",
"y. c #809E0E",
"u. c #839417",
"i. c #859915",
"p. c #8B9E17",
"a. c #83941A",
"s. c #86991A",
"d. c #899B18",
"f. c #8FAF0F",
"g. c #8CA314",
"h. c #8DAA11",
"j. c #8EA119",
"k. c #8BA818",
"l. c #91A51A",
"z. c #96AA1A",
"x. c #96AA1B",
"c. c #9AB81A",
"v. c #A4B418",
"b. c #A4BA1D",
"n. c #919330",
"m. c #8EA820",
"M. c #97A924",
"N. c #9EB221",
"B. c #A1B721",
"V. c #A4BA22",
"C. c #A8BE24",
"Z. c #AFB334",
"A. c #9FC616",
"S. c #AAC71A",
"D. c #B4C917",
"F. c #B3CB1E",
"G. c #AAD119",
"H. c #B6D719",
"J. c #BBD31E",
"K. c #BEDA1D",
"L. c #BBE415",
"P. c #AEC526",
"I. c #AECC22",
"U. c #B0C726",
"Y. c #B3CA25",
"T. c #B2C928",
"R. c #BBD424",
"E. c #BAD425",
"W. c #C3DD1C",
"Q. c #CBE51E",
"!. c #C7EA19",
"~. c #D1ED1F",
"^. c #CAF116",
"/. c #D3F31C",
"(. c #C3DD22",
"). c #C6E121",
"_. c #C9E420",
"`. c #CDE921",
"'. c #D1ED21",
"]. c #D5F121",
"[. c #A4854A",
"{. c #BE9A4F",
"}. c #B1A94C",
"|. c #F4F169",
" X c #302C83",
".X c #3D36A4",
"XX c #3D49A4",
"oX c #43458F",
"OX c #4353A7",
"+X c #4A55B8",
"@X c #5452C7",
"#X c #8B098A",
"$X c #8B1587",
"%X c #9D0B9B",
"&X c #9A1395",
"*X c #8F2182",
"=X c #A22491",
"-X c #B83C94",
";X c #A708A6",
":X c #AB14A4",
">X c #B415AA",
",X c #B706B8",
"<X c #B521A5",
"1X c #C210BB",
"2X c #CD2FAF",
"3X c #84418E",
"4X c #D944AC",
"5X c #C906C8",
"6X c #D916CD",
"7X c #CF02D1",
"8X c #DA06D8",
"9X c #DB13D2",
"0X c #DE00E1",
"qX c #E202E3",
"wX c #E703E7",
"eX c #EC02EE",
"rX c #EF00F1",
"tX c #F201F4",
"yX c #F600FB",
"uX c #FF00FF",
"iX c #92BC95",
"pX c #89D18C",
"aX c #86E380",
"sX c #ABF2A6",
/* pixels */
"uXuXuXuXuXuXuXuXuXuXuXuXuXuXuXuXuXuXuXuXuXuXuXuXuXuXuXuXuXuXuXuXuXuXuXuXuXuXuXuXuXuXuXuXuXuXuXuXuXuXuXuXuXuXuXuXuXuXuXuXuXuXuXuX",
"uXuXuXuXuXuXuXuXuXuXuXuXuXuXuXuXuXuXuXuXuXuXuXuXuXuXuXuXuXuXuXuXuXuXuXyXuXuXuXuXuXuXuXuXuXuXuXuXuXuXuXuXuXuXuXuXuXuXuXuXuXuXuXuX",
"uXuXuXuXuXuXuXuXuXuXuXuXuXuXuXuXuXuXuXuXuXuXuXuXuXuXuXyX8X .3XY Z.0.;.6XyXyXuXuXuXuXuXuXuXuXuXuXuXuXuXuXuXuXuXuXuXuXuXuXuXuXuXuX",
"uXuXuXuXuXuXuXuXuXuXuXuXuXuXuXuXuXuXuXuXuXuXuXuXuXuX1X-.B.Y #.z L.E.A.N.-.2XuXuXuXuXuXuXuXuXuXuXuXuXuXuXuXuXuXuXuXuXuXuXuXuXuXuX",
"uXuXuXuXuXuXuXuXuXuXuXuXuXuXuXuXuXuXuXuXuXuXuXuXtX*.c.!.c.j i.c R.R.U.Y.I.f.-XeXuXuXuXuXuXuXuXuXuXuXuXuXuXuXuXuXuXuXuXuXuXuXuXuX",
"uXuXuXuXuXuXuXuXuXuXuXuXuXuXuXuXuXuXuXuXuXuXuX8X-.H.`._.K.!.`.)._._.Y.Y.P.l.G.}.9XuXuXuXuXuXuXuXuXuXuXuXuXuXuXuXuXuXuXuXuXuXuXuX",
"uXuXuXuXuXuXuXuXuXuXuXuXuXuXuXuXuXuXuXuXuXuXwXn.^._._._.Q._.)._.`.Q._.E.N.y E.G.j.2XuXuXuXuXuXuXuXuXuXuXuXuXuXuXuXuXuXuXuXuXuXuX",
"uXuXuXuXuXuXuXuXuXuXuXuXuXuXuXuXuXuXuXuXuXtX-.^.!.Q._._.).Q._._._._.).N.M i B K Y.n.eXuXuXuXuXuXuXuXuXuXuXuXuXuXuXuXuXuXuXuXuXuX",
"uXuXuXuXuXuXuXuXuXuXuXuXuXuXuXuXuXuXuXuXyX:.^.Q.`._._._._._._._._._.E.t f w.i 4.T.S.>.yXuXuXuXuXuXuXuXuXuXuXuXuXuXuXuXuXuXuXuXuX",
"uXuXuXuXuXuXuXuXuXuXuXuXuXuXuXuXuXuXuXuX2XL.~.d.x.`._._._._._._._._.Q.S.f o.n J.P.U.A.-XuXuXuXuXuXuXuXuXuXuXuXuXuXuXuXuXuXuXuXuX",
"uXuXuXuXuXuXuXuXuXuXuXuXuXuXuXuXuXuXuXeXZ./.~.q.I !.K.)._._._.Q._.Q.Q.K.2 v * N.T.P.I.M.9XuXuXuXuXuXuXuXuXuXuXuXuXuXuXuXuXuXuXuX",
"uXuXuXuXuXuXuXuXuXuXuXuXuXuXuXuXuXuXyX>.L.R.D.e.iX~ @.l.~.(._._._.Q.Q.Y.l.Q.).(.Y.P.P.G.:.uXuXuXuXuXuXuXuXuXuXuXuXuXuXuXuXuXuXuX",
"uXuXuXuXuXuXuXuXuXuXuXuXuXuXuXuXuXuX2XL.S.a R pXsXaXq.]._._._.Q._._._._.'._._._._.R.U.Y.j.8XuXuXuXuXuXuXuXuXuXuXuXuXuXuXuXuXuXuX",
"uXuXuXuXuXuXuXuXuXuXuXuXuXuXuXuXuXwXZ./._.M.E t.t.r.0.]._._._.(._._._._._._._._._._.U.P.h.2XuXuXuXuXuXuXuXuXuXuXuXuXuXuXuXuXuXuX",
"uXuXuXuXuXuXuXuXuXuXuXuXuXuXuXuXuX>.^._._.'.v.E r.r.9.`._._._._._._._._.`._._._.`.).P.U.c.=.uXuXuXuXuXuXuXuXuXuXuXuXuXuXuXuXuXuX",
"uXuXuXuXuXuXuXuXuXuXuXuXuXuXuXuX-XK.R.U.T._.J.f 9.s.i I.`._._._.).Q.`.S.l.'._.'.(.W.R.U.A.0.eXuXuXuXuXuXuXuXuXuXuXuXuXuXuXuXuXuX",
"uXuXuXuXuXuXuXuXuXuXuXuXuXuXyX4XI.Y.Y.(._._.J.V _.'.W.(.`.Q._._._._.'.x.^ M.'.p.; u.(.N.l.h ;XuXuXuXuXuXuXuXuXuXuXuXuXuXuXuXuXuX",
"uXuXuXuXuXuXuXuXuXuXuXyX9X4X{.k.6./.Q.Y.`._._._._._._.(._._.Q.(._._.`.c..X#.W ( / Y.R.z.H o O 5XuXuXuXuXuXuXuXuXuXuXuXuXuXuXuXuX",
"uXuXuXuXuXuXuXuXuXyX2X}.F.!./.l.U j.U 6.'._._._._._.`.(._.(.Q._._._.`.D.( +XXXOX4.'.(.C.u.8.@ 7 eXuXuXuXuXuXuXuXuXuXuXuXuXuXuXuX",
"uXuXuXuXuXuXuXuX6X[.!./.Q._.].u.~ }.W W._._._._.Q.(.`._._._.`._._.'.H.I oXXX+X( f.'._.R.c.p.K o { qXuXuXuXuXuXuXuXuXuXuXuXuXuXuX",
"uXuXuXuXuXuXuX<XC.^._._._._.Z U |.|.! _._._.(.(._.Q.(.(._._._._.`.7./ .X@XOX+XOXI R.`.(.P.C.l.4.1.{ eXuXuXuXuXuXuXuXuXuXuXuXuXuX",
"uXuXuXuXuXuX5Xm.E.R.`._._._.b.6.}.}.I 7.'._.U.U.Q.M.M.R.E.E.(.).T.n.F C r +XoXoX X3 W.`.Q.T.V.B.P.P e 0XuXuXuXuXuXuXuXuXuXuXuXuX",
"uXuXuXuXuXuX_ x.E.P.E.R.(.(._.~.k H v.s.E.U.U.P.D.M - U.m.M.C.U.U.Y.E.B.S / M S.l.u.F._._.Q.Y.U.U.Y.l.' 7XuXuXuXuXuXuXuXuXuXuXuX",
"uXuXuXuXuX,X= % 0.C.U.P.P.U.U.b.4.B.E.Y.P.T.B.j.u.= 7 9 $ s.p.U.U.U.Y.N.a.. x F.(.(._.R.R._.(.U.U.P.C.c.U :XuXuXuXuXuXuXuXuXuXuX",
"uXuXuXuXuX_ i   * j.c.C.U.P.B.d.B.U.P.P.U.C.l.G o 7 7 6 g l.p.z.M.j.l.p.d.c 6.p.U.P.U.P.P.P.T.T.V.B.N.Y.v.<.=XuXuXuXuXuXuXuXuXuX",
"uXuXuXuXtX' #   N g.s.d.j.p.s.d.d.j.j.p.p.d.d.p.P ; 8 6 . G P K 6.i.i.p.l.d.p.s.z.T.U.U.U.U.V.l.i.u.z.V.c.p.3.=XuXuXuXuXuXuXuXuX",
"uXuXuXuXeX9 . . u.j.d.s.s.d.s.d.d.d.d.j.d.u.J v M > - 4 c b D Z V u l l M K 4.d.j.z.C.P.U.T.l.s.d.d.i.d.d.d.l.1.*XuXuXuXuXuXuXuX",
"uXuXuXuXyX' J X > P j.j.d.j.d.4.4.H H c $ c m Z 5.a.7.3 6.l.j.l.j.j.F 2 Q V l b L s.p.j.l.z.d.s.s.p.6.* K l.m K P ,XuXuXuXuXuXuX",
"uXuXuXuXuX%.f.m $ m 3 & v G j g Z C D Z l l K 7.d.j.l.A X a 2 y 3 a o m x.l.j.u.= # M 2.p.p.d.d.d.d.a.% O k O m l.Y 8XuXuXuXuXuX",
"uXuXuXuXuX5X! k.m p.a.% $ K s.j.l.g.k.l.j.2.c 3 b 3 & 2 c L 6.4.2.H m 2 * m K D a A R z z D u.j.p.d.x.m O + O D l.1.<XuXuXuXuXuX",
"uXuXuXuXuXuX:X<.u.u.p.d.* o k c C 6.K K u.8.6.G > y v y u.p.d.d.p.p.d.F > $ # A s.l.j.j.u.D l F 6.u.C = + + + o K h.=.yXuXuXuXuX",
"uXuXuXuXuXuXtX=X~ 4.y.h.m + - z b m x > y m v Z 2.l.V g 4.d.d.d.d.d.d.2.* L - b 2 x G 6.P P G ; + > X     O * c K h.+.uXuXuXuXuX",
"uXuXuXuXuXuXuXuXtX1X%.+.9 i % X * 4.l.l.l.j.j.p.j.5.+ H p.d.s.d.d.i.d.u.> a.3 m d.5.K Z m F D F ! 8.P b 1 o C a.j.<.*XuXuXuXuXuX",
"uXuXuXuXuXuXuXuXuXuXuXyXqX:X| 9 y & * j D u.d.h.6.3 l H p.i.d.d.s.d.d.d.3 G s.j b s.j.j.j.p.p.j.j.d.j.x.W o a # V 1.>XuXuXuXuXuX",
"uXuXuXuXuXuXuXuXuXuXuXuXuXuXuX8X>X$.I w : & & h @ N m L p.d.s.s.d.d.d.d.3 * l.l.H < Q p.j.p.p.p.p.j.p.2.% v k.2.8.Y 8XuXuXuXuXuX",
"uXuXuXuXuXuXuXuXuXuXuXuXuXuXuXuXuXuXrXeXwX5X&X] r 0 = a.p.d.p.i.i.p.s.p.b $ v d.l.7.x s G 6.5.L C b > ; A j.g.h.Q ,XuXuXuXuXuXuX",
"uXuXuXuXuXuXuXuXuXuXuXuXuXuXuXuXuXuXuXuXuXuXuXuXuXtX%.1.s.d.i.d.d.i.d.p.H > @ t B B G x , o $ @ % g J 1.1.3.Y &.qXuXuXuXuXuXuXuX",
"uXuXuXuXuXuXuXuXuXuXuXuXuXuXuXuXuXuXuXuXuXuXuXuXuXuX&.y.d.d.d.s.d.d.d.p.P r -.T T O.8 ) / 0 2.3.4.! +.} &.:XwXuXuXuXuXuXuXuXuXuX",
"uXuXuXuXuXuXuXuXuXuXuXuXuXuXuXuXuXuXuXuXuXuXuXuXuXuX{ y.d.d.s.d.d.s.d.p.,.&XyXuXuXuXuXuXuXeX8X8X8X0XuXuXuXuXuXuXuXuXuXuXuXuXuXuX",
"uXuXuXuXuXuXuXuXuXuXuXuXuXuXuXuXuXuXuXuXuXuXuXuXuXwXY g.d.u.d.d.d.d.i.u.B &XuXuXuXuXuXuXuXuXuXuXuXuXuXuXuXuXuXuXuXuXuXuXuXuXuXuX",
"uXuXuXuXuXuXuXuXuXuXuXuXuXuXuXuXuXuXuXuXuXuXuXuXuX,XS d.i.s.d.d.u.d.d.2.j X.yXuXuXuXuXuXuXuXuXuXuXuXuXuXuXuXuXuXuXuXuXuXuXuXuXuX",
"uXuXuXuXuXuXuXuXuXuXuXuXuXuXuXuXuXuXuXuXuXuXuXuXuX%.1.i.s.d.i.d.d.d.d.p.S ] uXuXuXuXuXuXuXuXuXuXuXuXuXuXuXuXuXuXuXuXuXuXuXuXuXuX",
"uXuXuXuXuXuXuXuXuXuXuXuXuXuXuXuXuXuXuXuXuXuXuXuX0XI p.d.p.d.d.d.s.d.d.p.,.{ uXuXuXuXuXuXuXuXuXuXuXuXuXuXuXuXuXuXuXuXuXuXuXuXuXuX",
"uXuXuXuXuXuXuXuXuXuXuXuXuXuXuXuXuXuXuXuXuXuXuXuX%XJ p.i.s.i.d.s.d.d.d.u.N { uXuXuXuXuXuXuXuXuXuXuXuXuXuXuXuXuXuXuXuXuXuXuXuXuXuX",
"uXuXuXuXuXuXuXuXuXuXuXuXuXuXuXuXuXuXuXuXuXuXuXyX] u.d.d.d.d.i.d.i.d.p.P h X.uXuXuXuXuXuXuXuXuXuXuXuXuXuXuXuXuXuXuXuXuXuXuXuXuXuX",
"uXuXuXuXuXuXuXuXuXuXuXuXuXuXuXuXuXuXuXuXuXuXuX .D p.i.d.s.d.d.s.d.s.d.H h $.uXuXuXuXuXuXuXuXuXuXuXuXuXuXuXuXuXuXuXuXuXuXuXuXuXuX",
"uXuXuXuXuXuXuXuXuXuXuXuXuXuXuXuXuXuXuXuXuXuX| x d.d.d.s.d.i.s.d.s.d.u.j N ] uXuXuXuXuXuXuXuXuXuXuXuXuXuXuXuXuXuXuXuXuXuXuXuXuXuX",
"uXuXuXuXuXuXuXuXuXuXuXuXuXuXuXuXuXuXuXuXuX .p a.d.d.s.d.d.d.p.i.d.d.P j h ] uXuXuXuXuXuXuXuXuXuXuXuXuXuXuXuXuXuXuXuXuXuXuXuXuXuX",
"uXuXuXuXuXuXuXuXuXuXuXuXuXuXuXuXuXuXuXuX .p 7.p.s.d.d.d.i.d.s.d.d.d.G z p [ uXuXuXuXuXuXuXuXuXuXuXuXuXuXuXuXuXuXuXuXuXuXuXuXuXuX",
"uXuXuXuXuXuXuXuXuXuXuXuXuXuXuXuXuXuXuX,Xp a.i.J K d.d.s.d.s.d.s.d.H m s i $XuXuXuXuXuXuXuXuXuXuXuXuXuXuXuXuXuXuXuXuXuXuXuXuXuXuX",
"uXuXuXuXuXuXuXuXuXuXuXuXuXuXuXuXuXuXuX[ 3.j.C H d.d.i.d.d.d.d.d.p.2.z q i &XuXuXuXuXuXuXuXuXuXuXuXuXuXuXuXuXuXuXuXuXuXuXuXuXuXuX",
"uXuXuXuXuXuXuXuXuXuXuXuXuXuXuXuXuXuX,Xn d.p.K a.p.d.d.d.i.d.d.j.u.C 5 l N &XuXuXuXuXuXuXuXuXuXuXuXuXuXuXuXuXuXuXuXuXuXuXuXuXuXuX",
"uXuXuXuXuXuXuXuXuXuXuXuXuXuXuXuXuXuX$Xu D H G D F D K 4.d.d.p.4.D z q 3 u &XuXuXuXuXuXuXuXuXuXuXuXuXuXuXuXuXuXuXuXuXuXuXuXuXuXuX",
"uXuXuXuXuXuXuXuXuXuXuXuXuXuXuXuXuXuX[ < s z d q 3 s z m D K G c k < 1 q , %XuXuXuXuXuXuXuXuXuXuXuXuXuXuXuXuXuXuXuXuXuXuXuXuXuXuX",
"uXuXuXuXuXuXuXuXuXuXuXuXuXuXuXuXuXuX.., q q 1 5 q q q q a s s 1 1 1 1 5 1 5XuXuXuXuXuXuXuXuXuXuXuXuXuXuXuXuXuXuXuXuXuXuXuXuXuXuX",
"uXuXuXuXuXuXuXuXuXuXuXuXuXuXuXuXuXuX| , 1 1 1 1 ; 1 1 1 1 1 1 1 1 1 1 q = 7XuXuXuXuXuXuXuXuXuXuXuXuXuXuXuXuXuXuXuXuXuXuXuXuXuXuX",
"uXuXuXuXuXuXuXuXuXuXuXuXuXuXuXuXuXuX,X; 1 1 1 1 1 1 1 1 1 1 1 1 1 1 1 5 ) uXuXuXuXuXuXuXuXuXuXuXuXuXuXuXuXuXuXuXuXuXuXuXuXuXuXuX",
"uXuXuXuXuXuXuXuXuXuXuXuXuXuXuXuXuXuXuX_ , 1 1 1 1 1 1 1 1 1 1 1 1 1 5 1 ;XuXuXuXuXuXuXuXuXuXuXuXuXuXuXuXuXuXuXuXuXuXuXuXuXuXuXuX",
"uXuXuXuXuXuXuXuXuXuXuXuXuXuXuXuXuXuXuX5X< q 1 1 1 1 1 1 1 1 1 1 1 1 i ..yXuXuXuXuXuXuXuXuXuXuXuXuXuXuXuXuXuXuXuXuXuXuXuXuXuXuXuX",
"uXuXuXuXuXuXuXuXuXuXuXuXuXuXuXuXuXuXuXuX) < 1 1 1 1 1 1 1 1 1 1 1 5 - 7XuXuXuXuXuXuXuXuXuXuXuXuXuXuXuXuXuXuXuXuXuXuXuXuXuXuXuXuX",
"uXuXuXuXuXuXuXuXuXuXuXuXuXuXuXuXuXuXuXuX8Xr i 4 1 4 q 4 4 4 1 4 2 i _ yXuXuXuXuXuXuXuXuXuXuXuXuXuXuXuXuXuXuXuXuXuXuXuXuXuXuXuXuX",
"uXuXuXuXuXuXuXuXuXuXuXuXuXuXuXuXuXuXuXuXuX8X8 , p q 5 5 q q 5 i < _ rXuXuXuXuXuXuXuXuXuXuXuXuXuXuXuXuXuXuXuXuXuXuXuXuXuXuXuXuXuX",
"uXuXuXuXuXuXuXuXuXuXuXuXuXuXuXuXuXuXuXuXuXuXeX%Xe w 5 , < < 0 ` #XtXuXuXuXuXuXuXuXuXuXuXuXuXuXuXuXuXuXuXuXuXuXuXuXuXuXuXuXuXuXuX",
"uXuXuXuXuXuXuXuXuXuXuXuXuXuXuXuXuXuXuXuXuXuXuXuXyXwX5X#X,X7XeXyXuXuXuXuXuXuXuXuXuXuXuXuXuXuXuXuXuXuXuXuXuXuXuXuXuXuXuXuXuXuXuXuX"
};
